<svg width="22" height="26" viewBox="0 0 22 26" fill="none" xmlns="http://www.w3.org/2000/svg">
<path d="M13 6.5C17.5722 6.5 21.377 10.5696 21.4971 15.7476C19.8163 16.9937 18.8753 18.2545 18.3125 19.4604C17.8137 20.5293 17.6205 21.5445 17.4603 22.3864C17.4346 22.5212 17.4098 22.6515 17.3847 22.7769C17.1968 23.7164 17.0013 24.3296 16.4813 24.7528C15.9487 25.1864 14.9728 25.5 13 25.5C11.0273 25.5 10.0514 25.1864 9.51878 24.7528C8.99876 24.3296 8.8032 23.7164 8.6153 22.7769C8.59022 22.6515 8.56541 22.5212 8.53975 22.3864C8.37952 21.5445 8.1863 20.5293 7.68747 19.4604C7.12471 18.2545 6.18373 16.9937 4.50293 15.7476C4.62302 10.5696 8.42789 6.5 13 6.5Z" fill="white" stroke="black"/>
<circle cx="9" cy="15" r="2" fill="black"/>
<circle cx="17" cy="15" r="2" fill="black"/>
<path d="M13 17L14 17.5L14.5 21L13 21.5L11.5 21L12 17.5L13 17Z" fill="black"/>
<path d="M7.12041 4.31351L9.98047 11.4762L3.43798 7.3921L7.12041 4.31351Z" stroke="black" stroke-width="2"/>
<path d="M9.48018 10.5708L10.6578 11.1134L10.1494 9.92065L6.88782 2.2689L6.60208 1.59855L6.07943 2.10635L1.78634 6.27753L1.26369 6.78533L1.92554 7.09026L9.48018 10.5708Z" fill="white" stroke="black"/>
<path d="M12.042 4.67973L13.5879 9.63452L9.37913 6.59703L12.042 4.67973Z" fill="white" stroke="black"/>
</svg>
